<svg width="338" height="313" viewBox="0 0 338 313" fill="none" xmlns="http://www.w3.org/2000/svg">
<circle cx="168.5" cy="156.5" r="153.5" stroke="black" stroke-width="6"/>
<rect x="92" y="115" width="140" height="154" rx="43" fill="#00A19D"/>
<rect x="9.45682" y="117" width="113" height="26" transform="rotate(12.1152 9.45682 117)" fill="#00A19D"/>
<path d="M17.5 1L32.6554 142.75H2.34456L17.5 1Z" fill="#00A19D"/>
<rect width="113" height="26" transform="matrix(-0.977728 0.209878 0.209878 0.977728 322.483 117)" fill="#00A19D"/>
<path d="M320.44 1L305.285 142.75H335.596L320.44 1Z" fill="#00A19D"/>
<path d="M190 285.5C190 297.38 178.939 308 164 308C149.061 308 138 297.38 138 285.5C138 273.62 149.061 263 164 263C178.939 263 190 273.62 190 285.5Z" stroke="#00A19D" stroke-width="10"/>
<path d="M59.9566 60.8037C63.9084 56.5802 70.6085 56.5802 74.5604 60.8037L109.756 98.4176C115.734 104.807 111.204 115.25 102.454 115.25H32.063C23.3132 115.25 18.7828 104.807 24.7611 98.4176L59.9566 60.8037Z" fill="#FFB319"/>
<path d="M73.731 65H204.308V90C204.308 103.807 193.115 115 179.308 115H73.731V65Z" fill="#FFB319"/>
<ellipse cx="134.236" cy="66.5" rx="70.0726" ry="41.5" fill="#FFB319"/>
<ellipse cx="229.073" cy="86" rx="42.7753" ry="9" fill="#FFB319"/>
<ellipse rx="46.2688" ry="8.75429" transform="matrix(0.887308 -0.461178 0.162459 0.986715 293.799 175)" fill="#FFB319"/>
<ellipse rx="52.5835" ry="8.23916" transform="matrix(0.710563 0.703633 -0.29931 0.954156 298.17 117.861)" fill="#FFB319"/>
<path d="M158 200.3C156.38 200.3 155.14 199.84 154.28 198.92C153.42 198 152.99 196.7 152.99 195.02V183.98C152.99 182.3 153.42 181 154.28 180.08C155.14 179.16 156.38 178.7 158 178.7C159.62 178.7 160.86 179.16 161.72 180.08C162.58 181 163.01 182.3 163.01 183.98V195.02C163.01 196.7 162.58 198 161.72 198.92C160.86 199.84 159.62 200.3 158 200.3ZM158 197.3C159.14 197.3 159.71 196.61 159.71 195.23V183.77C159.71 182.39 159.14 181.7 158 181.7C156.86 181.7 156.29 182.39 156.29 183.77V195.23C156.29 196.61 156.86 197.3 158 197.3ZM170.072 200.3C168.472 200.3 167.252 199.85 166.412 198.95C165.572 198.03 165.152 196.72 165.152 195.02V193.37H168.272V195.26C168.272 196.62 168.842 197.3 169.982 197.3C171.122 197.3 171.692 196.62 171.692 195.26V190.55C171.692 189.17 171.122 188.48 169.982 188.48C168.842 188.48 168.272 189.17 168.272 190.55V190.73H165.152L165.752 179H174.452V182H168.692L168.422 187.01H168.482C169.102 185.99 170.052 185.48 171.332 185.48C172.532 185.48 173.442 185.89 174.062 186.71C174.682 187.53 174.992 188.72 174.992 190.28V195.02C174.992 196.72 174.572 198.03 173.732 198.95C172.892 199.85 171.672 200.3 170.072 200.3Z" fill="white"/>
<path d="M122.88 83.3C121.28 83.3 120.06 82.85 119.22 81.95C118.38 81.03 117.96 79.72 117.96 78.02V77.63H121.08V78.23C121.08 79.61 121.65 80.3 122.79 80.3C123.41 80.3 123.87 80.11 124.17 79.73C124.47 79.35 124.62 78.68 124.62 77.72V73.7H124.56C123.98 74.92 122.98 75.53 121.56 75.53C120.36 75.53 119.45 75.12 118.83 74.3C118.21 73.48 117.9 72.29 117.9 70.73V66.98C117.9 65.3 118.33 64 119.19 63.08C120.05 62.16 121.29 61.7 122.91 61.7C124.53 61.7 125.77 62.16 126.63 63.08C127.49 64 127.92 65.3 127.92 66.98V77.84C127.92 81.48 126.24 83.3 122.88 83.3ZM122.91 72.53C124.05 72.53 124.62 71.84 124.62 70.46V66.74C124.62 65.38 124.05 64.7 122.91 64.7C121.77 64.7 121.2 65.38 121.2 66.74V70.46C121.2 71.84 121.77 72.53 122.91 72.53ZM135.102 83.3C133.482 83.3 132.242 82.84 131.382 81.92C130.522 81 130.092 79.7 130.092 78.02V67.16C130.092 63.52 131.772 61.7 135.132 61.7C136.732 61.7 137.952 62.16 138.792 63.08C139.632 63.98 140.052 65.28 140.052 66.98V67.37H136.932V66.77C136.932 65.39 136.362 64.7 135.222 64.7C134.602 64.7 134.142 64.89 133.842 65.27C133.542 65.65 133.392 66.32 133.392 67.28V71.3H133.452C134.032 70.08 135.032 69.47 136.452 69.47C137.652 69.47 138.562 69.88 139.182 70.7C139.802 71.52 140.112 72.71 140.112 74.27V78.02C140.112 79.7 139.682 81 138.822 81.92C137.962 82.84 136.722 83.3 135.102 83.3ZM135.102 80.3C136.242 80.3 136.812 79.62 136.812 78.26V74.54C136.812 73.16 136.242 72.47 135.102 72.47C133.962 72.47 133.392 73.16 133.392 74.54V78.26C133.392 79.62 133.962 80.3 135.102 80.3Z" fill="white"/>
</svg>
